<svg width="400" height="400" viewBox="0 0 400 400" fill="none" xmlns="http://www.w3.org/2000/svg"><style>.bg{fill:#fff}.fg{fill:#111}@media (prefers-color-scheme:dark){.bg{fill:#111}.fg{fill:#fff}}</style>
<rect class="bg" width="400" height="400"/>
<path d="M366.76 230.133C366.234 230.396 365.315 230.527 364.002 230.527C361.376 230.527 358.488 229.674 355.337 227.967C352.317 226.26 349.691 224.225 347.459 221.861C345.226 219.367 344.11 217.2 344.11 215.362C343.979 211.029 345.095 200.525 347.459 183.85C349.953 167.175 352.907 152.01 356.321 138.354C359.735 124.699 363.018 117.872 366.169 117.872C369.32 117.872 372.734 118.922 376.41 121.023C380.218 122.992 383.435 125.487 386.061 128.507C388.687 131.396 390 134.022 390 136.385C390 138.354 388.49 143.409 385.47 151.55C383.894 156.014 382.253 160.872 380.546 166.124C378.839 171.376 377.526 176.3 376.607 180.896C375.163 187.592 373.915 196.323 372.865 207.09C372.077 214.574 371.224 220.154 370.305 223.831C369.517 227.376 368.335 229.477 366.76 230.133ZM346.868 281.143C344.636 281.143 342.272 279.962 339.777 277.598C337.414 275.103 335.379 272.149 333.672 268.735C332.096 265.322 331.309 262.302 331.309 259.676C331.309 257.444 332.819 255.08 335.838 252.586C338.99 250.091 342.732 247.99 347.065 246.283C351.398 244.576 355.271 243.723 358.685 243.723C360.917 243.723 363.149 244.904 365.381 247.268C367.613 249.5 369.386 252.257 370.699 255.54C372.143 258.691 372.865 261.383 372.865 263.615C372.865 265.978 371.289 268.538 368.138 271.296C365.118 274.053 361.508 276.416 357.306 278.386C353.236 280.224 349.756 281.143 346.868 281.143Z" class="fg"/>
<path d="M310.498 232.103C310.63 234.204 311.089 239.521 311.877 248.056C312.796 256.459 313.256 263.484 313.256 269.13C313.256 276.482 312.402 280.421 310.695 280.947C310.17 281.078 309.317 281.143 308.135 281.143C305.246 281.143 301.636 280.487 297.303 279.174C293.101 277.73 289.293 275.957 285.88 273.856C282.597 271.756 280.693 269.72 280.168 267.751C279.643 265.781 279.38 257.509 279.38 242.935C265.2 244.642 255.878 245.692 251.413 246.086C247.868 256.459 243.798 267.817 239.202 280.159C235.657 280.947 232.375 281.34 229.355 281.34C224.103 281.34 219.639 280.093 215.962 277.598C212.417 274.972 210.054 271.033 208.872 265.781L212.811 256.919C227.254 224.75 239.728 197.768 250.232 175.972C260.867 154.176 267.76 143.278 270.911 143.278C273.406 143.278 277.017 144.197 281.744 146.036C286.602 147.874 290.935 150.106 294.742 152.732C298.681 155.358 300.913 157.721 301.439 159.822C302.358 163.499 303.605 171.18 305.181 182.865C306.756 194.551 308.004 205.843 308.923 216.741L310.498 232.103ZM278.789 174.003C273.012 187.658 267.301 202.298 261.655 217.922C267.695 217.529 273.669 216.938 279.577 216.15C279.577 198.03 279.315 183.981 278.789 174.003Z" class="fg"/>
<path d="M195.19 143.278C197.291 143.278 200.18 144.46 203.856 146.823C207.533 149.187 210.815 151.944 213.704 155.095C216.592 158.247 218.037 160.741 218.037 162.579C217.905 165.993 215.673 176.432 211.34 193.895L207.204 211.62L205.235 221.665C202.871 233.613 200.902 242.935 199.326 249.631C197.882 256.328 196.503 260.792 195.19 263.024C193.615 265.781 190.726 268.604 186.524 271.493C182.323 274.25 177.596 276.548 172.344 278.386C167.223 280.224 162.365 281.143 157.77 281.143C153.043 281.143 147.463 279.174 141.029 275.235C134.727 271.165 129.278 265.978 124.682 259.676C120.218 253.373 117.986 246.94 117.986 240.375C117.986 234.204 120.021 229.346 124.091 225.8C128.293 222.124 133.085 220.286 138.469 220.286C143.327 220.286 147.331 221.599 150.483 224.225C150.351 225.538 150.286 227.442 150.286 229.936C150.286 234.663 150.745 239.193 151.664 243.526C152.583 247.728 153.831 251.076 155.406 253.57C156.982 256.065 158.558 257.312 160.133 257.312C163.416 257.312 166.567 252.98 169.587 244.314C172.738 235.517 175.495 224.619 177.859 211.62C178.778 206.631 179.894 201.05 181.207 194.879C183.439 184.375 184.818 176.76 185.343 172.033C179.566 172.821 174.904 173.346 171.359 173.609C169.915 173.74 166.895 174.068 162.3 174.593C157.704 174.987 153.568 175.578 149.892 176.366C147.003 175.053 144.705 173.018 142.999 170.261C141.423 167.372 140.635 164.221 140.635 160.807C140.635 156.343 141.948 152.338 144.574 148.793C152.321 146.823 160.79 145.445 169.981 144.657C179.303 143.738 187.706 143.278 195.19 143.278Z" class="fg"/>
<path d="M62.3888 141.309C71.9737 141.309 81.0334 143.606 89.5679 148.202C98.2337 152.797 105.127 158.903 110.248 166.518C115.5 174.002 118.126 181.815 118.126 189.955C118.126 202.691 114.712 216.347 107.884 230.921C101.057 245.364 92.3908 257.509 81.8868 267.357C71.5141 277.204 61.2727 282.128 51.1626 282.128C45.9106 282.128 40.0021 279.962 33.4371 275.629C27.0034 271.164 21.4888 265.912 16.8933 259.873C12.2978 253.702 10 248.253 10 243.526C10 236.042 12.2321 223.174 16.6963 204.924C21.1605 186.541 25.2965 173.018 29.1042 164.352C33.4371 163.039 37.5074 162.382 41.3151 162.382C43.9411 162.382 46.0419 162.645 47.6175 163.17C47.3549 158.312 48.5366 153.848 51.1626 149.777C53.7886 145.707 57.5307 142.884 62.3888 141.309ZM42.1029 255.146C54.7077 250.55 65.2774 241.753 73.8119 228.754C82.3464 215.624 88.3862 201.247 91.9313 185.622C88.2549 182.996 83.4624 180.83 77.5539 179.123C71.7767 177.416 65.54 176.497 58.8437 176.366C59.1063 177.679 59.3689 179.648 59.6315 182.274C47.5518 204.858 41.709 229.148 42.1029 255.146Z" class="fg"/>
</svg>
